HIERARCHY
ROOT mixamorig:Hips
{
	OFFSET 0.000000 93.411469 0.000000
	CHANNELS 6 Xposition Yposition Zposition Xrotation Yrotation Zrotation
	JOINT mixamorig:Spine
	{
		OFFSET 0.000000 10.969696 -0.921700
		CHANNELS 3 Xrotation Yrotation Zrotation
		JOINT mixamorig:Spine1
		{
			OFFSET 0.000000 12.798012 -1.075264
			CHANNELS 3 Xrotation Yrotation Zrotation
			JOINT mixamorig:Spine2
			{
				OFFSET 0.000000 14.626259 -1.228870
				CHANNELS 3 Xrotation Yrotation Zrotation
				JOINT mixamorig:Neck
				{
					OFFSET 0.000000 16.454529 -1.382478
					CHANNELS 3 Xrotation Yrotation Zrotation
					JOINT mixamorig:Head
					{
						OFFSET 0.000000 7.061096 2.298900
						CHANNELS 3 Xrotation Yrotation Zrotation
						JOINT mixamorig:HeadTop_End
						{
							OFFSET 0.000000 18.930405 6.163300
							CHANNELS 3 Xrotation Yrotation Zrotation
							End Site
							{
								OFFSET 0.000000 19.908447 0.000000
							}
						}
					}
				}
				JOINT mixamorig:LeftShoulder
				{
					OFFSET 6.916900 13.989166 -1.398025
					CHANNELS 3 Xrotation Yrotation Zrotation
					JOINT mixamorig:LeftArm
					{
						OFFSET 13.811563 -4.518066 -0.031181
						CHANNELS 3 Xrotation Yrotation Zrotation
						JOINT mixamorig:LeftForeArm
						{
							OFFSET 21.026705 0.000000 -0.000001
							CHANNELS 3 Xrotation Yrotation Zrotation
							JOINT mixamorig:LeftHand
							{
								OFFSET 30.839008 0.000000 -0.000001
								CHANNELS 3 Xrotation Yrotation Zrotation
								JOINT mixamorig:LeftHandThumb1
								{
									OFFSET 3.208382 -1.340668 3.573760
									CHANNELS 3 Xrotation Yrotation Zrotation
									JOINT mixamorig:LeftHandThumb2
									{
										OFFSET 3.089905 -1.783951 1.783957
										CHANNELS 3 Xrotation Yrotation Zrotation
										JOINT mixamorig:LeftHandThumb3
										{
											OFFSET 3.728340 -2.152557 2.152560
											CHANNELS 3 Xrotation Yrotation Zrotation
											JOINT mixamorig:LeftHandThumb4
											{
												OFFSET 3.203789 -1.849716 1.849710
												CHANNELS 3 Xrotation Yrotation Zrotation
												End Site
												{
													OFFSET 3.128281 -1.853439 1.971235
												}
											}
										}
									}
								}
								JOINT mixamorig:LeftHandIndex1
								{
									OFFSET 11.035851 0.100845 3.217585
									CHANNELS 3 Xrotation Yrotation Zrotation
									JOINT mixamorig:LeftHandIndex2
									{
										OFFSET 4.427094 0.000000 -0.000000
										CHANNELS 3 Xrotation Yrotation Zrotation
										JOINT mixamorig:LeftHandIndex3
										{
											OFFSET 4.056732 0.000000 -0.000000
											CHANNELS 3 Xrotation Yrotation Zrotation
											JOINT mixamorig:LeftHandIndex4
											{
												OFFSET 3.191704 0.000000 -0.000000
												CHANNELS 3 Xrotation Yrotation Zrotation
												End Site
												{
													OFFSET 3.191597 -0.000992 -0.025581
												}
											}
										}
									}
								}
								JOINT mixamorig:LeftHandMiddle1
								{
									OFFSET 10.687675 0.000000 -0.000000
									CHANNELS 3 Xrotation Yrotation Zrotation
									JOINT mixamorig:LeftHandMiddle2
									{
										OFFSET 4.506920 0.000000 0.000000
										CHANNELS 3 Xrotation Yrotation Zrotation
										JOINT mixamorig:LeftHandMiddle3
										{
											OFFSET 4.342422 0.000000 0.000000
											CHANNELS 3 Xrotation Yrotation Zrotation
											JOINT mixamorig:LeftHandMiddle4
											{
												OFFSET 3.451599 0.000000 0.000000
												CHANNELS 3 Xrotation Yrotation Zrotation
												End Site
												{
													OFFSET 3.451599 0.000031 0.000499
												}
											}
										}
									}
								}
								JOINT mixamorig:LeftHandRing1
								{
									OFFSET 10.107727 -0.115112 -2.675112
									CHANNELS 3 Xrotation Yrotation Zrotation
									JOINT mixamorig:LeftHandRing2
									{
										OFFSET 4.405701 0.000000 0.000000
										CHANNELS 3 Xrotation Yrotation Zrotation
										JOINT mixamorig:LeftHandRing3
										{
											OFFSET 4.156296 0.000000 0.000000
											CHANNELS 3 Xrotation Yrotation Zrotation
											JOINT mixamorig:LeftHandRing4
											{
												OFFSET 3.334007 0.000000 0.000000
												CHANNELS 3 Xrotation Yrotation Zrotation
												End Site
												{
													OFFSET 3.334000 0.000000 0.000000
												}
											}
										}
									}
								}
								JOINT mixamorig:LeftHandPinky1
								{
									OFFSET 8.357552 0.157242 -4.638768
									CHANNELS 3 Xrotation Yrotation Zrotation
									JOINT mixamorig:LeftHandPinky2
									{
										OFFSET 4.531311 0.000000 0.000000
										CHANNELS 3 Xrotation Yrotation Zrotation
										JOINT mixamorig:LeftHandPinky3
										{
											OFFSET 3.827148 0.000000 0.000000
											CHANNELS 3 Xrotation Yrotation Zrotation
											JOINT mixamorig:LeftHandPinky4
											{
												OFFSET 2.714729 0.000000 0.000000
												CHANNELS 3 Xrotation Yrotation Zrotation
												End Site
												{
													OFFSET 2.714699 -0.001343 -0.011623
												}
											}
										}
									}
								}
							}
						}
					}
				}
				JOINT mixamorig:RightShoulder
				{
					OFFSET -6.916900 13.989166 -1.366916
					CHANNELS 3 Xrotation Yrotation Zrotation
					JOINT mixamorig:RightArm
					{
						OFFSET -13.811562 -4.518066 0.031181
						CHANNELS 3 Xrotation Yrotation Zrotation
						JOINT mixamorig:RightForeArm
						{
							OFFSET -21.029896 0.000000 0.000001
							CHANNELS 3 Xrotation Yrotation Zrotation
							JOINT mixamorig:RightHand
							{
								OFFSET -30.839504 0.000000 0.000001
								CHANNELS 3 Xrotation Yrotation Zrotation
								JOINT mixamorig:RightHandThumb1
								{
									OFFSET -3.244499 -1.258942 3.480628
									CHANNELS 3 Xrotation Yrotation Zrotation
									JOINT mixamorig:RightHandThumb2
									{
										OFFSET -3.050079 -1.760956 1.760963
										CHANNELS 3 Xrotation Yrotation Zrotation
										JOINT mixamorig:RightHandThumb3
										{
											OFFSET -3.677361 -2.123123 2.123126
											CHANNELS 3 Xrotation Yrotation Zrotation
											JOINT mixamorig:RightHandThumb4
											{
												OFFSET -3.242935 -1.872314 1.872308
												CHANNELS 3 Xrotation Yrotation Zrotation
												End Site
												{
													OFFSET -3.022049 -1.871368 2.211979
												}
											}
										}
									}
								}
								JOINT mixamorig:RightHandIndex1
								{
									OFFSET -11.161339 0.318161 3.037528
									CHANNELS 3 Xrotation Yrotation Zrotation
									JOINT mixamorig:RightHandIndex2
									{
										OFFSET -4.414124 0.000000 0.000000
										CHANNELS 3 Xrotation Yrotation Zrotation
										JOINT mixamorig:RightHandIndex3
										{
											OFFSET -4.061035 0.000000 0.000000
											CHANNELS 3 Xrotation Yrotation Zrotation
											JOINT mixamorig:RightHandIndex4
											{
												OFFSET -3.294205 0.000000 0.000000
												CHANNELS 3 Xrotation Yrotation Zrotation
												End Site
												{
													OFFSET -3.294205 -0.000015 -0.000200
												}
											}
										}
									}
								}
								JOINT mixamorig:RightHandMiddle1
								{
									OFFSET -10.641754 0.000000 0.000000
									CHANNELS 3 Xrotation Yrotation Zrotation
									JOINT mixamorig:RightHandMiddle2
									{
										OFFSET -4.389687 0.000000 0.000000
										CHANNELS 3 Xrotation Yrotation Zrotation
										JOINT mixamorig:RightHandMiddle3
										{
											OFFSET -4.420738 0.000000 0.000000
											CHANNELS 3 Xrotation Yrotation Zrotation
											JOINT mixamorig:RightHandMiddle4
											{
												OFFSET -3.603416 0.000000 0.000000
												CHANNELS 3 Xrotation Yrotation Zrotation
												End Site
												{
													OFFSET -3.603394 -0.000565 -0.010184
												}
											}
										}
									}
								}
								JOINT mixamorig:RightHandRing1
								{
									OFFSET -9.956535 0.117477 -2.765310
									CHANNELS 3 Xrotation Yrotation Zrotation
									JOINT mixamorig:RightHandRing2
									{
										OFFSET -4.605896 0.000000 0.000000
										CHANNELS 3 Xrotation Yrotation Zrotation
										JOINT mixamorig:RightHandRing3
										{
											OFFSET -4.152107 0.000000 0.000000
											CHANNELS 3 Xrotation Yrotation Zrotation
											JOINT mixamorig:RightHandRing4
											{
												OFFSET -3.477600 0.000000 0.000000
												CHANNELS 3 Xrotation Yrotation Zrotation
												End Site
												{
													OFFSET -3.477600 -0.000046 -0.000498
												}
											}
										}
									}
								}
								JOINT mixamorig:RightHandPinky1
								{
									OFFSET -8.563660 0.262604 -4.726969
									CHANNELS 3 Xrotation Yrotation Zrotation
									JOINT mixamorig:RightHandPinky2
									{
										OFFSET -4.504433 0.000000 0.000000
										CHANNELS 3 Xrotation Yrotation Zrotation
										JOINT mixamorig:RightHandPinky3
										{
											OFFSET -3.676010 0.000000 0.000000
											CHANNELS 3 Xrotation Yrotation Zrotation
											JOINT mixamorig:RightHandPinky4
											{
												OFFSET -2.949142 0.000000 0.000000
												CHANNELS 3 Xrotation Yrotation Zrotation
												End Site
												{
													OFFSET -2.948807 -0.006821 -0.044278
												}
											}
										}
									}
								}
							}
						}
					}
				}
			}
		}
	}
	JOINT mixamorig:LeftUpLeg
	{
		OFFSET 9.285400 -6.101402 0.098400
		CHANNELS 3 Xrotation Yrotation Zrotation
		JOINT mixamorig:LeftLeg
		{
			OFFSET 0.890501 -41.218121 -2.074509
			CHANNELS 3 Xrotation Yrotation Zrotation
			JOINT mixamorig:LeftFoot
			{
				OFFSET -0.890499 -34.639042 -3.437759
				CHANNELS 3 Xrotation Yrotation Zrotation
				JOINT mixamorig:LeftToeBase
				{
					OFFSET -1.884331 -11.023919 16.124651
					CHANNELS 3 Xrotation Yrotation Zrotation
					JOINT mixamorig:LeftToe_End
					{
						OFFSET -0.872758 -0.189663 7.223194
						CHANNELS 3 Xrotation Yrotation Zrotation
						End Site
						{
							OFFSET -0.872758 -0.189663 7.223194
						}
					}
				}
			}
		}
	}
	JOINT mixamorig:RightUpLeg
	{
		OFFSET -9.285400 -6.101402 0.477000
		CHANNELS 3 Xrotation Yrotation Zrotation
		JOINT mixamorig:RightLeg
		{
			OFFSET -0.890505 -41.218170 -2.452988
			CHANNELS 3 Xrotation Yrotation Zrotation
			JOINT mixamorig:RightFoot
			{
				OFFSET 0.890501 -34.639118 -2.464579
				CHANNELS 3 Xrotation Yrotation Zrotation
				JOINT mixamorig:RightToeBase
				{
					OFFSET 1.884341 -11.023602 14.949366
					CHANNELS 3 Xrotation Yrotation Zrotation
					JOINT mixamorig:RightToe_End
					{
						OFFSET 0.872763 -0.189519 7.182385
						CHANNELS 3 Xrotation Yrotation Zrotation
						End Site
						{
							OFFSET 0.872763 -0.189519 7.182386
						}
					}
				}
			}
		}
	}
}
MOTION
Frames: 5
Frame Time: 0.033333
-0.243616 84.750473 0.355155 -72.149665 -98.403410 -74.791541 5.117261 -2.823246 -0.643071 4.847007 -2.724710 -1.011894 4.872829 -2.670301 -1.025823 -6.470351 11.543111 1.332234 1.868951 69.226460 6.189721 0.000000 -0.000000 -0.000000 2.334453 -16.473663 5.405041 -58.657589 -59.148352 -60.618947 -0.000081 -91.815829 -0.000424 -1.362808 2.416360 38.308386 2.333988 -4.852045 -3.963511 13.533747 36.265890 -6.789614 18.237532 69.607598 3.188385 -0.000004 -0.000003 -0.000002 2.878013 7.353394 -58.659666 6.385696 5.826696 -95.251872 2.817840 5.005788 -58.730536 0.000000 0.000000 0.000002 2.878033 7.353412 -58.659673 6.420577 5.823397 -95.595246 1.278798 3.654848 -38.558761 0.000001 0.000003 0.000000 3.051707 7.454270 -60.629704 5.249928 5.820224 -84.092825 2.817855 5.005818 -58.730543 -0.000002 0.000002 0.000001 2.878020 7.353403 -58.659679 3.100904 5.166443 -61.922235 2.817837 5.005803 -58.730536 0.000001 -0.000000 -0.000000 2.128882 10.933909 -13.435702 -29.167797 -8.101107 18.902839 0.000017 129.787719 -0.000027 -48.886683 35.994308 -4.322209 2.454485 6.926611 5.617167 7.810706 -26.809508 -3.040594 18.936290 -62.858716 1.747704 0.000005 -0.000003 0.000001 2.770847 -6.512088 65.405386 4.589342 -4.656669 89.164711 1.495819 -3.421546 47.217508 -0.000000 -0.000002 -0.000000 2.634491 -6.539934 74.809231 5.688711 -4.541733 102.810302 1.460387 -3.388475 46.621113 0.000001 0.000000 0.000000 3.122518 -6.655064 70.080924 5.298714 -4.612849 97.926314 2.043363 -3.855845 55.828962 0.000001 -0.000000 0.000000 4.911951 -9.704402 53.806212 4.184475 -4.633167 84.168039 1.827797 -3.700685 52.558511 0.000004 0.000000 -0.000002 -41.228487 7.595339 27.702916 40.374693 -8.097403 1.395318 -7.290373 1.378494 -15.106649 -0.240305 0.000740 -0.173932 -0.000000 0.000000 0.000000 -42.229612 -4.747772 -10.773829 51.574280 -6.334937 0.048590 -14.797526 -1.865523 10.327512 -0.000009 0.000001 0.000001 -0.000000 0.000001 0.000000 
-0.176969 84.660118 -0.647952 -74.542622 -98.255140 -76.771429 5.256563 -2.715985 -0.664775 5.014675 -2.630699 -1.039302 5.039993 -2.568401 -1.055187 -5.057757 11.754621 0.334700 -0.336679 68.330141 7.156986 -0.000000 -0.000003 0.000002 2.239571 -16.348170 4.775472 -55.899996 -59.073097 -59.159690 -0.000191 -91.536337 -0.000723 -0.192607 1.250165 37.719757 2.333983 -4.852051 -3.963503 13.533778 36.265900 -6.789639 18.237496 69.607585 3.188456 -0.000004 0.000000 0.000001 2.878031 7.353396 -58.659666 6.385698 5.826703 -95.251851 2.817853 5.005789 -58.730550 0.000000 0.000001 0.000002 2.878047 7.353400 -58.659666 6.420572 5.823401 -95.595246 1.278808 3.654840 -38.558761 -0.000002 0.000002 -0.000000 3.051710 7.454279 -60.629718 5.249928 5.820233 -84.092831 2.817844 5.005800 -58.730550 -0.000002 0.000001 -0.000001 2.878027 7.353400 -58.659659 3.100890 5.166426 -61.922249 2.817841 5.005793 -58.730543 0.000000 0.000003 0.000001 2.192994 11.444433 -13.137422 -26.372617 -6.921784 19.204033 0.000010 129.371911 -0.000009 -45.696592 38.011570 -6.552015 2.454490 6.926617 5.617183 7.810686 -26.809486 -3.040622 18.936281 -62.858702 1.747714 -0.000003 -0.000001 0.000003 2.770839 -6.512067 65.405372 4.589340 -4.656693 89.164711 1.495829 -3.421545 47.217528 0.000000 0.000001 0.000001 2.634485 -6.539946 74.809245 5.688722 -4.541737 102.810309 1.460400 -3.388470 46.621099 -0.000000 0.000000 -0.000000 3.122514 -6.655057 70.080931 5.298697 -4.612869 97.926314 2.043363 -3.855861 55.828972 0.000001 0.000000 0.000000 4.911931 -9.704395 53.806226 4.184461 -4.633176 84.168005 1.827797 -3.700695 52.558524 0.000002 -0.000001 0.000000 -40.696429 7.482803 27.695304 39.033664 -8.074668 1.465859 -6.327833 1.289239 -15.903715 -0.347490 0.000452 -0.136972 -0.000000 0.000001 0.000000 -42.663312 -2.961620 -11.262489 52.977228 -7.153039 -1.877422 -15.334506 -2.051535 11.307052 0.013060 -0.000021 -0.000001 -0.000000 -0.000001 -0.000000 
-0.111315 84.571930 -1.943334 -77.842594 -98.134853 -79.592229 5.386902 -2.645781 -0.637181 5.177505 -2.596607 -1.088989 5.203622 -2.522560 -1.109103 -3.677434 12.029172 -0.809990 -2.724556 67.370452 8.259367 -0.000000 -0.000000 -0.000001 2.158340 -16.404666 3.992736 -53.292800 -58.942381 -57.870779 0.000852 -91.005290 0.000675 1.010272 0.182494 36.772123 2.333994 -4.852037 -3.963522 13.533784 36.265917 -6.789646 18.237529 69.607598 3.188409 -0.000001 0.000001 -0.000002 2.878032 7.353393 -58.659659 6.385700 5.826695 -95.251872 2.817845 5.005788 -58.730536 0.000002 -0.000001 0.000000 2.878058 7.353394 -58.659666 6.420557 5.823397 -95.595239 1.278794 3.654853 -38.558761 0.000001 -0.000000 -0.000005 3.051715 7.454263 -60.629725 5.249937 5.820237 -84.092831 2.817843 5.005799 -58.730536 -0.000002 0.000001 0.000000 2.878041 7.353394 -58.659666 3.100903 5.166434 -61.922235 2.817844 5.005792 -58.730536 -0.000000 -0.000002 -0.000003 2.259081 11.987931 -12.809984 -23.488133 -5.824153 19.386725 0.000012 128.696487 -0.000003 -42.664889 40.251630 -8.872527 2.454482 6.926621 5.617175 7.810698 -26.809498 -3.040596 18.936269 -62.858695 1.747699 0.000000 -0.000003 0.000001 2.770858 -6.512090 65.405366 4.589348 -4.656681 89.164739 1.495826 -3.421546 47.217521 -0.000000 0.000001 0.000002 2.634494 -6.539951 74.809218 5.688707 -4.541731 102.810309 1.460398 -3.388473 46.621099 0.000001 0.000000 -0.000000 3.122538 -6.655071 70.080931 5.298693 -4.612851 97.926307 2.043359 -3.855855 55.828972 -0.000001 0.000000 0.000000 4.911941 -9.704416 53.806232 4.184486 -4.633171 84.168025 1.827819 -3.700695 52.558524 -0.000001 0.000001 0.000003 -39.942646 7.313508 27.676847 37.072371 -7.976364 1.588871 -5.011319 1.135168 -17.022611 -0.362631 0.000223 -0.090988 -0.000000 -0.000001 -0.000000 -42.572351 -1.371210 -11.845732 53.266743 -8.219069 -3.709815 -15.859906 -2.425404 13.114578 -0.017861 0.000015 -0.000006 -0.000000 -0.000001 0.000000 
-0.038403 84.523567 -3.531292 -80.774186 -98.115913 -82.014514 5.494531 -2.547256 -0.528069 5.318546 -2.560866 -1.143609 5.345765 -2.471566 -1.168742 -2.291450 12.333358 -2.096320 -4.836774 66.369419 9.055613 -0.000000 -0.000002 -0.000001 2.079763 -16.659163 2.987160 -50.765623 -58.780280 -56.627708 -0.000390 -90.564702 -0.000916 1.814554 -0.975889 35.925173 2.334007 -4.852044 -3.963499 13.533759 36.265911 -6.789635 18.237532 69.607605 3.188439 -0.000005 -0.000000 0.000005 2.878030 7.353383 -58.659659 6.385708 5.826708 -95.251878 2.817846 5.005788 -58.730556 0.000001 -0.000000 0.000001 2.878055 7.353377 -58.659666 6.420562 5.823409 -95.595232 1.278787 3.654843 -38.558767 -0.000004 -0.000001 -0.000001 3.051700 7.454264 -60.629718 5.249921 5.820225 -84.092831 2.817843 5.005813 -58.730550 -0.000003 -0.000001 0.000000 2.878032 7.353390 -58.659652 3.100895 5.166440 -61.922222 2.817832 5.005777 -58.730550 -0.000001 -0.000002 0.000000 2.324970 12.509571 -12.545814 -21.042278 -5.040271 19.263848 0.000001 128.328996 0.000005 -40.048094 41.467386 -11.166448 2.454484 6.926634 5.617197 7.810679 -26.809510 -3.040625 18.936271 -62.858695 1.747714 -0.000000 0.000001 0.000003 2.770843 -6.512072 65.405386 4.589332 -4.656697 89.164711 1.495825 -3.421547 47.217511 0.000000 -0.000000 0.000001 2.634484 -6.539941 74.809225 5.688712 -4.541715 102.810309 1.460394 -3.388475 46.621095 0.000003 0.000000 0.000000 3.122527 -6.655058 70.080944 5.298693 -4.612863 97.926307 2.043363 -3.855848 55.828972 0.000002 0.000000 0.000000 4.911935 -9.704395 53.806229 4.184477 -4.633173 84.168032 1.827807 -3.700679 52.558521 0.000004 0.000001 0.000000 -38.805604 7.152297 27.682593 34.205164 -7.606230 1.824079 -3.226558 0.893185 -18.551634 -0.220023 0.000103 -0.074109 -0.000000 0.000000 -0.000000 -42.433049 -0.249153 -12.289304 53.090917 -8.662042 -5.078110 -16.505362 -2.903179 15.237937 -0.051371 0.000006 0.000005 -0.000000 -0.000000 0.000000 
0.048081 84.583145 -5.342031 -81.931425 -98.210914 -82.709944 5.581222 -2.424511 -0.338346 5.435811 -2.511791 -1.164648 5.464653 -2.405543 -1.194602 -0.813430 12.639981 -3.495517 -6.368155 65.465929 9.290332 0.000001 -0.000000 -0.000000 1.988460 -17.051280 1.777701 -48.358549 -58.586733 -55.520859 0.003466 -90.373990 0.001760 2.014284 -2.133776 35.851704 2.333995 -4.852033 -3.963520 13.533753 36.265907 -6.789631 18.237529 69.607598 3.188421 0.000003 -0.000002 0.000001 2.878027 7.353389 -58.659673 6.385701 5.826706 -95.251865 2.817847 5.005797 -58.730556 0.000000 0.000000 0.000000 2.878044 7.353394 -58.659673 6.420584 5.823401 -95.595246 1.278797 3.654838 -38.558767 0.000001 0.000000 0.000000 3.051711 7.454258 -60.629711 5.249934 5.820240 -84.092831 2.817847 5.005809 -58.730536 0.000002 -0.000001 0.000001 2.878023 7.353398 -58.659679 3.100892 5.166442 -61.922242 2.817850 5.005797 -58.730543 0.000002 0.000001 0.000001 2.404139 13.056847 -12.393380 -19.539344 -4.689321 18.712067 0.000010 128.374416 -0.000016 -38.761914 40.991606 -12.327948 2.454488 6.926607 5.617163 7.810682 -26.809483 -3.040615 18.936298 -62.858709 1.747712 -0.000001 -0.000005 -0.000000 2.770847 -6.512083 65.405393 4.589336 -4.656695 89.164711 1.495827 -3.421530 47.217501 0.000001 0.000001 0.000000 2.634485 -6.539936 74.809231 5.688701 -4.541719 102.810275 1.460401 -3.388476 46.621113 -0.000004 -0.000000 0.000000 3.122540 -6.655052 70.080910 5.298700 -4.612849 97.926321 2.043365 -3.855856 55.828966 -0.000002 -0.000000 0.000000 4.911935 -9.704401 53.806219 4.184492 -4.633164 84.168025 1.827800 -3.700686 52.558521 0.000001 0.000002 -0.000001 -36.950729 6.981619 27.628233 30.014057 -6.551161 2.347835 -0.843610 0.514147 -20.579563 0.161633 0.000043 -0.014789 -0.000000 -0.000001 0.000000 -42.612372 0.318054 -12.395304 53.124539 -8.781647 -5.708946 -17.013868 -3.295645 16.925916 0.035103 -0.000013 -0.000005 -0.000000 -0.000001 -0.000000 
